<?xml version="1.0" standalone="no"?>
<!DOCTYPE svg PUBLIC "-//W3C//DTD SVG 20010904//EN"
 "http://www.w3.org/TR/2001/REC-SVG-20010904/DTD/svg10.dtd">
<svg version="1.0" xmlns="http://www.w3.org/2000/svg"
 width="400.000000pt" height="400.000000pt" viewBox="0 0 400.000000 400.000000"
 preserveAspectRatio="xMidYMid meet">
<metadata>
Created by potrace 1.14, written by Peter Selinger 2001-2017
</metadata>
<g transform="translate(0.000000,400.000000) scale(0.100000,-0.100000)"
fill="#000000" stroke="none">
<path d="M0 3310 c0 -379 3 -690 6 -690 9 0 50 45 57 62 4 10 9 9 17 -4 12
-20 51 -24 79 -9 10 6 27 7 39 4 34 -9 27 -45 -18 -92 -42 -43 -48 -56 -27
-64 9 -4 9 -8 1 -14 -7 -4 -17 -28 -24 -53 -7 -25 -15 -52 -18 -60 -3 -8 -6
-19 -6 -23 -2 -20 -41 -37 -73 -31 l-33 6 0 -1171 0 -1172 86 3 86 3 20 50
c32 82 93 272 128 400 36 130 126 355 143 355 6 0 7 -19 3 -52 -14 -116 -26
-322 -18 -330 4 -4 14 85 21 199 9 150 10 208 2 211 -17 6 18 60 43 66 11 3
22 3 25 1 5 -5 -17 -319 -30 -425 -11 -89 -26 -161 -29 -140 -2 8 -6 -1 -10
-20 l-7 -35 -2 45 c-1 38 -3 42 -13 26 -7 -13 -7 -63 2 -180 7 -88 14 -164 17
-168 2 -5 685 -8 1518 -8 l1513 0 11 32 c5 18 12 42 14 53 3 11 5 1 6 -23 0
-24 5 -41 9 -38 5 3 12 76 16 163 4 87 13 183 20 212 l12 55 12 -45 c16 -63
40 -188 60 -307 l16 -102 163 0 163 0 -1 1318 c0 724 -3 1310 -6 1302 -2 -8
-14 -37 -25 -64 -15 -37 -18 -60 -13 -97 4 -27 4 -67 0 -90 l-7 -41 -44 5
c-24 2 -49 9 -57 15 -18 16 -70 149 -63 161 4 5 -1 14 -10 19 -11 6 -14 14 -8
23 5 8 7 23 6 35 -2 11 4 27 14 34 9 8 20 24 25 37 8 21 11 22 36 10 15 -6 37
-20 47 -29 25 -22 49 -23 81 -2 l25 16 0 674 0 674 -2000 0 -2000 0 0 -690z
m1903 477 c36 -35 61 -55 56 -45 -9 16 -4 18 51 18 58 0 61 -1 55 -21 -5 -14
5 -8 31 20 54 61 86 75 132 60 47 -15 102 -50 152 -96 22 -19 40 -32 40 -28 0
4 -8 14 -17 21 -10 7 -16 15 -13 17 7 7 125 -74 169 -115 22 -21 32 -27 28
-15 -8 22 72 -34 142 -98 40 -37 142 -165 167 -210 81 -146 107 -207 129 -299
3 -17 19 -46 35 -66 36 -45 54 -109 40 -144 -11 -29 -30 -35 -30 -9 0 9 -3 14
-6 10 -4 -3 -3 -14 2 -24 4 -10 8 -22 9 -28 4 -26 30 -102 42 -120 20 -29 16
-72 -9 -95 -27 -25 -47 -26 -55 -2 -4 9 -19 37 -34 62 -15 25 -30 60 -34 77
-13 63 -20 40 -17 -54 3 -79 1 -98 -14 -114 -10 -11 -24 -17 -31 -15 -8 3 -13
-2 -13 -12 -1 -24 -26 -55 -41 -50 -7 2 -21 42 -30 89 l-16 84 1 -85 1 -86
-49 -57 c-27 -31 -51 -57 -55 -57 -4 0 -8 33 -10 73 -1 39 -6 90 -11 112 -7
34 -8 28 -9 -40 -1 -82 -20 -235 -30 -247 -3 -4 -6 28 -6 70 -1 169 -101 513
-201 692 -17 30 -34 64 -38 74 -3 10 -9 16 -12 13 -3 -3 15 -66 40 -139 56
-164 72 -239 84 -399 14 -171 14 -197 3 -203 -10 -7 -24 40 -16 54 4 6 2 10
-4 10 -6 0 -13 17 -16 38 -3 20 -10 45 -16 54 -5 10 -9 25 -9 34 0 8 -8 36
-19 62 -10 26 -33 88 -52 137 -54 150 -109 273 -108 245 1 -50 80 -348 123
-463 20 -52 36 -98 36 -102 0 -4 -9 -5 -20 -2 -11 3 -20 1 -20 -4 0 -5 11 -9
25 -9 14 0 25 -4 25 -10 0 -5 -8 -6 -17 -3 -16 6 -16 5 -4 -11 14 -16 12 -17
-22 -11 -25 5 -46 2 -68 -9 -41 -21 -66 -22 -50 -2 9 11 7 15 -9 19 -11 3 -20
0 -20 -5 0 -6 -6 -5 -15 2 -23 19 -12 23 73 31 71 7 68 7 -35 5 -62 -1 -113 2
-113 6 0 5 -4 8 -10 8 -5 0 -6 -8 -3 -17 6 -16 5 -17 -12 -3 -17 14 -18 14 -6
-7 6 -13 17 -22 23 -20 6 1 14 -11 19 -27 4 -15 15 -36 24 -46 8 -9 13 -23 10
-31 -2 -8 9 -36 26 -64 17 -27 28 -41 24 -30 -12 32 -11 58 2 62 7 3 15 -8 19
-24 13 -56 36 -83 69 -82 l30 1 -30 7 c-20 4 -26 9 -17 14 6 5 12 15 12 23 0
9 -5 12 -12 8 -6 -4 -8 -3 -5 4 4 5 16 8 28 5 11 -3 31 0 45 8 21 11 27 10 41
-4 16 -15 15 -18 -2 -37 -15 -17 -16 -20 -3 -20 22 0 34 19 37 60 2 19 5 37 7
39 9 9 24 -16 26 -42 2 -25 18 -40 18 -16 0 6 7 9 15 5 8 -3 15 -1 15 5 0 6 5
7 10 4 6 -3 10 -27 10 -52 0 -50 -31 -125 -85 -208 -18 -28 -48 -82 -67 -120
-19 -39 -47 -94 -62 -124 -38 -71 -71 -180 -86 -277 -7 -43 -20 -87 -29 -97
-41 -48 -203 -137 -248 -137 -16 0 -64 20 -107 45 -44 25 -81 45 -83 45 -7 0
-77 54 -85 65 -4 5 -8 28 -8 50 0 48 -24 112 -95 260 -76 159 -100 214 -120
270 -10 28 -30 77 -46 110 -56 119 -70 175 -44 175 8 0 15 -4 15 -10 0 -5 10
-10 21 -10 17 0 20 4 16 22 -7 23 17 58 38 58 7 0 15 -21 19 -50 4 -33 13 -53
24 -59 16 -9 18 -6 14 21 -5 30 -4 31 31 24 23 -4 36 -3 39 5 6 19 48 0 48
-22 0 -10 -4 -19 -9 -19 -5 0 -11 -6 -14 -14 -4 -9 0 -13 10 -12 19 3 31 29
32 67 1 45 55 54 67 12 5 -22 8 -24 11 -10 3 10 -1 25 -8 33 -10 12 -9 17 4
27 17 12 13 62 -4 52 -4 -3 -6 -12 -2 -20 3 -8 0 -15 -6 -15 -6 0 -11 9 -11
21 0 14 -5 19 -14 16 -8 -3 -20 1 -27 9 -29 35 -70 46 -151 42 -63 -4 -78 -2
-74 9 4 10 -2 12 -27 8 -24 -5 -29 -3 -21 5 7 7 58 15 115 18 l104 6 -88 7
c-49 4 -91 9 -93 12 -2 2 20 53 50 113 30 61 61 125 70 144 8 19 20 42 25 50
6 8 21 38 33 65 l23 50 5 -65 c4 -47 7 -14 12 115 5 99 10 194 13 210 6 34
-31 -49 -45 -100 -4 -16 -36 -106 -70 -200 -34 -93 -66 -184 -71 -202 -5 -17
-15 -33 -23 -36 -7 -3 -20 -32 -29 -64 -9 -33 -24 -68 -32 -79 -13 -18 -14
-16 -15 28 0 26 -5 50 -11 54 -9 5 -10 44 -6 133 5 119 4 123 -9 81 -8 -25
-21 -79 -30 -120 -9 -41 -20 -82 -25 -92 -5 -9 -10 -54 -10 -100 l-2 -83 -23
50 c-13 28 -24 57 -24 65 0 11 -2 12 -8 2 -6 -9 -16 -4 -37 18 -23 24 -30 42
-35 97 l-7 68 -2 -62 c-1 -47 -5 -63 -15 -63 -8 0 -21 -3 -29 -6 -10 -4 -29
13 -56 49 -41 53 -41 55 -31 106 5 28 16 75 24 104 10 35 13 63 7 87 l-8 35
-12 -30 c-6 -16 -15 -39 -20 -50 -27 -63 -51 -132 -51 -145 0 -8 -4 -21 -9
-29 -7 -11 -13 -11 -32 3 -13 9 -30 16 -38 16 -25 0 -51 -32 -51 -62 0 -21 -5
-28 -19 -28 -10 0 -22 -8 -25 -17 -9 -23 4 -105 20 -121 32 -31 59 -192 35
-206 -18 -11 -51 78 -52 140 l-1 59 -18 -60 c-10 -35 -22 -59 -29 -57 -8 1
-11 -5 -8 -15 16 -58 17 -75 6 -71 -18 6 -49 69 -49 100 0 16 -4 28 -10 28 -5
0 -10 24 -10 53 0 86 38 190 120 332 13 22 17 34 10 28 -40 -36 -20 0 62 115
49 70 93 134 96 142 3 8 11 22 18 30 7 8 17 27 23 42 8 22 8 26 -4 21 -9 -3
-15 1 -15 11 0 9 4 16 8 16 4 0 13 15 21 33 11 29 13 30 21 12 7 -17 10 -14
29 25 93 199 264 412 426 531 33 24 62 46 65 49 10 10 86 59 130 84 73 41 98
36 173 -37z m1517 -931 c0 -28 6 -51 16 -61 14 -14 15 -20 4 -41 -8 -13 -17
-24 -21 -24 -11 0 -40 45 -37 56 1 5 -2 23 -6 41 -8 36 6 73 29 73 11 0 15
-12 15 -44z m-2854 -40 c-8 -49 -15 -59 -34 -47 -9 5 -7 20 5 59 20 62 39 55
29 -12z m3170 -152 c9 -35 -16 -53 -45 -35 -12 8 -13 14 -3 35 15 33 40 33 48
0z m-1497 -337 c13 -16 5 -27 -20 -27 -9 0 -19 9 -22 20 -6 24 24 28 42 7z
m11 -82 c0 -5 -5 -3 -10 5 -5 8 -10 20 -10 25 0 6 5 3 10 -5 5 -8 10 -19 10
-25z m-1335 -99 c-23 -35 -26 -29 -13 24 10 39 13 41 21 23 6 -15 4 -28 -8
-47z m2223 -136 c14 -45 45 -284 40 -307 -3 -10 -8 7 -12 37 -12 87 -35 200
-53 257 -8 29 -12 60 -8 70 8 20 11 16 33 -57z m-59 -605 c6 -22 15 -78 20
-125 6 -47 17 -141 26 -210 18 -148 22 -249 11 -309 -9 -49 -19 -42 -30 23 -9
48 -18 39 -48 -47 -12 -38 -27 -68 -32 -68 -4 1 -10 63 -11 138 -5 197 -41
540 -76 711 -8 42 -7 66 6 125 10 39 23 86 30 102 7 17 21 53 31 80 l18 50 22
-215 c12 -118 26 -233 33 -255z m-1995 88 c-14 -111 -35 -194 -95 -373 -53
-159 -63 -277 -30 -380 11 -35 18 -66 16 -68 -8 -8 -26 10 -36 35 -12 33 -29
20 -29 -25 0 -28 -3 -33 -10 -22 -9 13 -10 13 -11 0 -2 -25 -38 123 -40 160
-1 31 -3 29 -17 -25 l-17 -60 -3 43 c-3 37 15 114 48 212 5 14 18 59 31 100
12 41 25 80 30 86 13 16 55 149 74 234 9 41 25 111 36 154 10 44 19 89 20 100
0 14 8 6 23 -26 23 -45 23 -49 10 -145z m2074 -418 c0 -16 -2 -15 -8 5 -4 14
-8 36 -8 50 0 22 1 22 8 -5 4 -16 8 -39 8 -50z m-2372 8 c-14 -20 -26 -34 -26
-28 0 11 43 75 48 70 2 -2 -8 -21 -22 -42z m1069 -153 c3 -5 -1 -20 -9 -32 -8
-13 -22 -72 -31 -133 -9 -60 -22 -130 -30 -155 -18 -63 -27 -140 -15 -140 6 0
10 15 11 33 0 17 6 47 13 66 l12 35 13 -46 c14 -49 11 -92 -9 -168 -7 -25 -16
-61 -21 -82 -7 -26 -14 -35 -27 -34 -13 2 -20 20 -31 71 -13 70 -12 84 24 245
5 24 5 24 -5 3 -5 -13 -14 -33 -19 -45 -20 -49 -11 144 9 202 11 30 19 61 20
68 0 16 70 122 81 122 4 0 11 -4 14 -10z m122 -32 c26 -25 29 -38 9 -38 -20 0
-86 -64 -86 -84 0 -26 -18 -18 -36 15 -18 36 -13 64 17 102 25 33 64 35 96 5z
m135 -5 c30 -35 47 -81 63 -174 14 -77 15 -103 5 -144 -11 -46 -10 -56 14
-119 29 -77 35 -176 12 -195 -11 -9 -15 -8 -20 4 -7 18 -60 325 -72 420 l-8
60 -7 -105 c-7 -122 -17 -190 -29 -190 -16 0 -17 54 -3 144 22 143 26 220 13
260 -17 52 1 74 32 39z m908 -254 c0 -6 -4 -7 -10 -4 -5 3 -10 11 -10 16 0 6
5 7 10 4 6 -3 10 -11 10 -16z m526 -62 c-4 -18 -1 -36 6 -45 9 -11 9 -14 1 -9
-7 5 -13 -2 -16 -20 -2 -16 -5 5 -6 45 -1 51 2 71 10 66 6 -4 9 -19 5 -37z
m-1489 -298 c3 -38 1 -59 -7 -64 -18 -11 -23 0 -28 63 -3 31 -8 59 -12 62 -4
3 -3 32 3 65 l10 60 14 -65 c8 -36 16 -90 20 -121z m-148 57 c13 -12 29 -17
47 -13 25 4 26 3 19 -32 -9 -48 -35 -102 -46 -95 -5 3 -6 -1 -3 -9 3 -8 1 -18
-5 -22 -6 -3 -11 -1 -11 4 0 6 -8 11 -18 11 -11 0 -32 11 -47 24 l-28 25 12
73 c23 129 21 127 41 87 10 -19 27 -42 39 -53z m1638 22 c-3 -7 -5 -2 -5 12 0
14 2 19 5 13 2 -7 2 -19 0 -25z m-1557 -154 c-18 -21 -24 -10 -8 15 7 12 14
17 16 11 2 -6 -2 -17 -8 -26z m1547 -81 c-3 -10 -5 -2 -5 17 0 19 2 27 5 18 2
-10 2 -26 0 -35z"/>
<path d="M2122 3670 c-12 -12 -22 -28 -22 -37 0 -14 3 -14 21 3 25 22 43 54
31 54 -4 0 -18 -9 -30 -20z"/>
<path d="M1971 3651 c23 -31 36 -35 26 -7 -3 8 -16 20 -27 26 -22 12 -22 11 1
-19z"/>
<path d="M2435 3670 c3 -5 11 -10 16 -10 6 0 7 5 4 10 -3 6 -11 10 -16 10 -6
0 -7 -4 -4 -10z"/>
<path d="M1658 3622 c-35 -38 -66 -85 -78 -118 -10 -27 -8 -26 24 11 20 22 35
44 36 49 0 5 12 24 26 43 32 42 27 53 -8 15z"/>
<path d="M2525 3592 c33 -34 61 -62 63 -62 8 0 -37 49 -78 85 -36 31 -33 26
15 -23z"/>
<path d="M1802 3575 c-65 -37 -159 -112 -224 -179 -76 -78 -97 -116 -27 -51
77 73 78 74 107 89 81 41 274 64 284 34 3 -8 9 -4 17 9 9 18 9 29 -4 53 -38
73 -82 86 -153 45z"/>
<path d="M2129 3573 c-26 -16 -59 -70 -59 -97 0 -16 31 -26 82 -26 48 0 126
-30 177 -67 70 -52 241 -284 266 -362 4 -12 9 -20 12 -18 2 3 -8 36 -23 74
-92 234 -240 445 -344 492 -54 25 -77 26 -111 4z"/>
<path d="M2635 3537 c22 -25 44 -46 49 -46 13 -1 -58 82 -75 87 -8 3 4 -15 26
-41z"/>
<path d="M2700 3462 c6 -13 14 -21 18 -18 3 4 -2 14 -12 24 -18 16 -18 16 -6
-6z"/>
<path d="M1917 3417 c-11 -29 -9 -43 4 -30 6 6 9 19 7 29 -3 18 -4 18 -11 1z"/>
<path d="M1688 3333 c-24 -28 -50 -83 -46 -101 2 -9 17 11 36 47 34 65 37 85
10 54z"/>
<path d="M2286 3276 c20 -31 39 -56 41 -56 10 0 -53 104 -65 108 -8 2 3 -21
24 -52z"/>
<path d="M2141 3258 c-1 -15 4 -30 9 -33 12 -7 12 12 0 40 -8 18 -9 17 -9 -7z"/>
<path d="M2162 3165 c0 -16 2 -22 5 -12 2 9 2 23 0 30 -3 6 -5 -1 -5 -18z"/>
<path d="M2105 2975 c4 -130 10 -199 23 -250 10 -39 21 -64 26 -57 9 15 25
162 24 232 0 41 -2 48 -7 25 -5 -24 -10 -11 -25 70 -36 188 -46 183 -41 -20z"/>
<path d="M2281 2974 c0 -11 3 -14 6 -6 3 7 2 16 -1 19 -3 4 -6 -2 -5 -13z"/>
<path d="M2201 2761 c-1 -90 1 -162 4 -159 3 2 5 58 6 123 0 76 4 114 10 104
14 -22 10 19 -6 61 -12 32 -14 20 -14 -129z"/>
<path d="M2231 2800 c0 -8 6 -28 14 -45 7 -16 14 -23 14 -15 0 8 -6 29 -14 45
-7 17 -14 23 -14 15z"/>
<path d="M2682 2750 c0 -14 2 -19 5 -12 2 6 2 18 0 25 -3 6 -5 1 -5 -13z"/>
<path d="M2061 2680 c0 -8 4 -24 9 -35 5 -13 9 -14 9 -5 0 8 -4 24 -9 35 -5
13 -9 14 -9 5z"/>
<path d="M1970 2654 c0 -7 7 -27 15 -45 10 -24 14 -28 14 -14 0 21 -28 78 -29
59z"/>
<path d="M2305 2590 c9 -16 18 -30 21 -30 2 0 -2 14 -11 30 -9 17 -18 30 -21
30 -2 0 2 -13 11 -30z"/>
<path d="M2911 2574 c0 -11 3 -14 6 -6 3 7 2 16 -1 19 -3 4 -6 -2 -5 -13z"/>
<path d="M2001 2549 c-1 -25 44 -211 72 -299 8 -25 14 -54 15 -66 1 -25 57
-150 71 -159 7 -3 11 3 11 14 0 25 3 25 38 8 15 -8 41 -14 59 -15 18 -1 44 -7
58 -12 l25 -10 -15 30 c-9 17 -22 30 -29 30 -24 0 -130 139 -188 248 -32 59
-58 114 -58 122 -1 8 -14 42 -30 75 -22 47 -29 55 -29 34z"/>
<path d="M2191 2534 c0 -11 3 -14 6 -6 3 7 2 16 -1 19 -3 4 -6 -2 -5 -13z"/>
<path d="M2340 2511 c0 -5 5 -13 10 -16 6 -3 10 -2 10 4 0 5 -4 13 -10 16 -5
3 -10 2 -10 -4z"/>
<path d="M1811 2460 c-1 -25 8 -92 20 -150 12 -58 23 -118 26 -135 3 -16 11
-34 18 -40 6 -5 19 -24 28 -41 9 -17 23 -36 31 -43 14 -12 15 -10 10 18 -7 34
-3 37 29 19 19 -9 20 -9 11 3 -18 22 -109 208 -129 263 -10 27 -23 72 -30 100
l-13 51 -1 -45z"/>
<path d="M2176 2427 c3 -10 9 -15 12 -12 3 3 0 11 -7 18 -10 9 -11 8 -5 -6z"/>
<path d="M1681 2366 c11 -9 69 -15 64 -6 -3 6 -20 10 -37 10 -17 0 -29 -2 -27
-4z"/>
<path d="M1578 2343 c6 -2 18 -2 25 0 6 3 1 5 -13 5 -14 0 -19 -2 -12 -5z"/>
<path d="M1727 2333 c-3 -4 1 -17 9 -28 10 -13 14 -15 14 -4 0 20 -16 43 -23
32z"/>
<path d="M2408 2093 c7 -3 16 -2 19 1 4 3 -2 6 -13 5 -11 0 -14 -3 -6 -6z"/>
<path d="M1875 2050 c3 -5 8 -10 11 -10 2 0 4 5 4 10 0 6 -5 10 -11 10 -5 0
-7 -4 -4 -10z"/>
<path d="M1961 1914 c0 -11 3 -14 6 -6 3 7 2 16 -1 19 -3 4 -6 -2 -5 -13z"/>
<path d="M1917 1903 c-4 -3 -7 -13 -7 -22 1 -13 3 -13 11 2 11 19 8 33 -4 20z"/>
<path d="M3031 1254 c0 -11 3 -14 6 -6 3 7 2 16 -1 19 -3 4 -6 -2 -5 -13z"/>
<path d="M3051 1134 c0 -11 3 -14 6 -6 3 7 2 16 -1 19 -3 4 -6 -2 -5 -13z"/>
<path d="M273 175 c0 -22 2 -30 4 -17 2 12 2 30 0 40 -3 9 -5 -1 -4 -23z"/>
<path d="M3600 90 c-3 -47 -4 -87 -3 -89 10 -15 13 18 11 90 l-3 84 -5 -85z"/>
<path d="M383 95 c0 -33 2 -45 4 -27 2 18 2 45 0 60 -2 15 -4 0 -4 -33z"/>
</g>
</svg>
